M48
;DRILL file {KiCad (2016-06-01 BZR 6870, Git 0ccd3bb)-product} date 06/04/16 23:15:21
;FORMAT={-:-/ absolute / inch / decimal}
FMAT,2
INCH,TZ
T1C0.016
T2C0.020
T3C0.022
T4C0.031
T5C0.040
%
G90
G05
M72
T1
X1.73Y-1.3175
X1.8125Y-1.165
X1.8125Y-1.235
X1.85Y-0.91
X1.885Y-1.2225
X1.92Y-1.1225
X1.97Y-1.215
X2.0375Y-1.3475
X2.045Y-0.9125
X2.0475Y-1.27
X2.095Y-1.175
X2.1075Y-0.89
X2.1338Y-1.0588
X2.1375Y-1.345
X2.1525Y-1.27
X2.195Y-1.04
X2.22Y-0.995
X2.2275Y-1.135
X2.2275Y-1.215
X2.2675Y-1.135
X2.2675Y-1.215
X2.2775Y-1.3475
X2.36Y-1.3825
X2.3825Y-1.1025
X2.385Y-1.25
X2.3875Y-0.97
T4
X1.79Y-1.05
X1.89Y-1.05
X1.99Y-1.05
T5
X2.44Y-0.85
X2.44Y-0.95
X2.44Y-1.05
X2.44Y-1.15
X2.44Y-1.25
X2.44Y-1.35
X2.54Y-0.85
X2.54Y-0.95
X2.54Y-1.05
X2.54Y-1.15
X2.54Y-1.25
X2.54Y-1.35
T2
X2.0572Y-0.8299G85X2.0572Y-0.8555
G05
X2.3328Y-0.8299G85X2.3328Y-0.8555
G05
T3
X2.1025Y-0.949G85X2.0907Y-0.949
G05
X2.2994Y-0.949G85X2.2876Y-0.949
G05
T0
M30
