G04 #@! TF.FileFunction,Soldermask,Top*
%FSLAX46Y46*%
G04 Gerber Fmt 4.6, Leading zero omitted, Abs format (unit mm)*
G04 Created by KiCad (PCBNEW (2016-06-01 BZR 6870, Git 0ccd3bb)-product) date 06/04/16 15:16:18*
%MOMM*%
%LPD*%
G01*
G04 APERTURE LIST*
%ADD10C,0.150000*%
%ADD11R,1.727200X1.727200*%
%ADD12O,1.727200X1.727200*%
%ADD13R,0.797560X0.797560*%
%ADD14R,0.660400X0.406400*%
%ADD15R,0.400000X1.350000*%
%ADD16O,1.250000X0.950000*%
%ADD17O,1.000000X1.550000*%
%ADD18R,0.600000X0.500000*%
%ADD19R,0.500000X0.600000*%
%ADD20R,0.600000X0.400000*%
%ADD21R,0.400000X0.600000*%
%ADD22R,0.800100X0.800100*%
%ADD23R,0.300000X0.600000*%
%ADD24R,0.600000X0.300000*%
%ADD25R,3.200000X3.200000*%
%ADD26R,0.470000X0.370000*%
%ADD27R,0.500000X1.250000*%
%ADD28C,1.600000*%
G04 APERTURE END LIST*
D10*
D11*
X61976000Y-34290000D03*
D12*
X64516000Y-34290000D03*
X61976000Y-31750000D03*
X64516000Y-31750000D03*
X61976000Y-29210000D03*
X64516000Y-29210000D03*
X61976000Y-26670000D03*
X64516000Y-26670000D03*
X61976000Y-24130000D03*
X64516000Y-24130000D03*
X61976000Y-21590000D03*
X64516000Y-21590000D03*
D13*
X57899300Y-35242500D03*
X56400700Y-35242500D03*
X55105300Y-35242500D03*
X53606700Y-35242500D03*
X46723300Y-35242500D03*
X45224700Y-35242500D03*
X48018700Y-35242500D03*
X49517300Y-35242500D03*
X50812700Y-35242500D03*
X52311300Y-35242500D03*
D14*
X49022000Y-29121100D03*
X49022000Y-30441900D03*
X49022000Y-29781500D03*
X51054000Y-30441900D03*
X51054000Y-29121100D03*
D15*
X57053900Y-24105040D03*
X56403900Y-24105040D03*
X55753900Y-24105040D03*
X55103900Y-24105040D03*
X54453900Y-24105040D03*
D16*
X58253900Y-24105040D03*
X53253900Y-24105040D03*
D17*
X59253900Y-21405040D03*
X52253900Y-21405040D03*
D18*
X54842500Y-26035000D03*
X53742500Y-26035000D03*
D19*
X52514500Y-29041000D03*
X52514500Y-30141000D03*
D20*
X55753000Y-33978000D03*
X55753000Y-33078000D03*
X52959000Y-33978000D03*
X52959000Y-33078000D03*
X43942000Y-35184500D03*
X43942000Y-34284500D03*
X44704000Y-20886000D03*
X44704000Y-21786000D03*
D21*
X47683000Y-31877000D03*
X48583000Y-31877000D03*
X49588000Y-31877000D03*
X50488000Y-31877000D03*
D20*
X47180500Y-33078000D03*
X47180500Y-33978000D03*
X50355500Y-33078000D03*
X50355500Y-33978000D03*
D21*
X44900000Y-22923500D03*
X44000000Y-22923500D03*
D19*
X44323000Y-29993500D03*
X44323000Y-31093500D03*
X47879000Y-29231500D03*
X47879000Y-30331500D03*
D18*
X45360500Y-28765500D03*
X46460500Y-28765500D03*
D19*
X49339500Y-22076500D03*
X49339500Y-20976500D03*
X50546000Y-22076500D03*
X50546000Y-20976500D03*
D22*
X45999240Y-21050000D03*
X45999240Y-22950000D03*
X47998220Y-22000000D03*
D23*
X55336500Y-32145000D03*
X55836500Y-32145000D03*
X56336500Y-32145000D03*
X56836500Y-32145000D03*
X57336500Y-32145000D03*
X57836500Y-32145000D03*
X58336500Y-32145000D03*
X58836500Y-32145000D03*
X55336500Y-27545000D03*
X55836500Y-27545000D03*
X56336500Y-27545000D03*
X56836500Y-27545000D03*
X58836500Y-27545000D03*
X58336500Y-27545000D03*
X57836500Y-27545000D03*
D24*
X59386500Y-29595000D03*
X59386500Y-28095000D03*
X54786500Y-31095000D03*
X54786500Y-29095000D03*
X54786500Y-28595000D03*
X54786500Y-31595000D03*
X54786500Y-30095000D03*
X59386500Y-29095000D03*
X59386500Y-28595000D03*
X54786500Y-30595000D03*
X54786500Y-29595000D03*
X54786500Y-28095000D03*
X59386500Y-31595000D03*
X59386500Y-31095000D03*
X59386500Y-30595000D03*
D25*
X57086500Y-29845000D03*
D24*
X59386500Y-30095000D03*
D23*
X57336500Y-27545000D03*
D19*
X50546000Y-23389500D03*
X50546000Y-24489500D03*
X53721000Y-28998000D03*
X53721000Y-27898000D03*
D26*
X46737500Y-30980000D03*
X46737500Y-30480000D03*
X46737500Y-29980000D03*
X45337500Y-30980000D03*
X45337500Y-29980000D03*
X45337500Y-30480000D03*
D27*
X46037500Y-30480000D03*
D28*
X48006000Y-26670000D03*
X50546000Y-26670000D03*
X45466000Y-26670000D03*
M02*
