G04 #@! TF.FileFunction,Legend,Top*
%FSLAX46Y46*%
G04 Gerber Fmt 4.6, Leading zero omitted, Abs format (unit mm)*
G04 Created by KiCad (PCBNEW (2016-06-01 BZR 6870, Git 0ccd3bb)-product) date 06/04/16 23:15:30*
%MOMM*%
%LPD*%
G01*
G04 APERTURE LIST*
%ADD10C,0.150000*%
G04 APERTURE END LIST*
D10*
X47831523Y-24217380D02*
X48450571Y-24217380D01*
X48117238Y-24598333D01*
X48260095Y-24598333D01*
X48355333Y-24645952D01*
X48402952Y-24693571D01*
X48450571Y-24788809D01*
X48450571Y-25026904D01*
X48402952Y-25122142D01*
X48355333Y-25169761D01*
X48260095Y-25217380D01*
X47974380Y-25217380D01*
X47879142Y-25169761D01*
X47831523Y-25122142D01*
X48783904Y-24550714D02*
X49022000Y-25217380D01*
X49260095Y-24550714D01*
X49545809Y-24217380D02*
X50164857Y-24217380D01*
X49831523Y-24598333D01*
X49974380Y-24598333D01*
X50069619Y-24645952D01*
X50117238Y-24693571D01*
X50164857Y-24788809D01*
X50164857Y-25026904D01*
X50117238Y-25122142D01*
X50069619Y-25169761D01*
X49974380Y-25217380D01*
X49688666Y-25217380D01*
X49593428Y-25169761D01*
X49545809Y-25122142D01*
X43989642Y-24217380D02*
X43513452Y-24217380D01*
X43465833Y-24693571D01*
X43513452Y-24645952D01*
X43608690Y-24598333D01*
X43846785Y-24598333D01*
X43942023Y-24645952D01*
X43989642Y-24693571D01*
X44037261Y-24788809D01*
X44037261Y-25026904D01*
X43989642Y-25122142D01*
X43942023Y-25169761D01*
X43846785Y-25217380D01*
X43608690Y-25217380D01*
X43513452Y-25169761D01*
X43465833Y-25122142D01*
X44370595Y-24550714D02*
X44608690Y-25217380D01*
X44846785Y-24550714D01*
X74616000Y-20320000D02*
X65786000Y-20320000D01*
X74616000Y-22860000D02*
X74616000Y-20320000D01*
X65786000Y-22860000D02*
X65786000Y-20320000D01*
X65786000Y-20320000D02*
X74616000Y-20320000D01*
X65786000Y-22860000D02*
X74616000Y-22860000D01*
X65786000Y-25400000D02*
X65786000Y-22860000D01*
X74616000Y-25400000D02*
X74616000Y-22860000D01*
X74616000Y-22860000D02*
X65786000Y-22860000D01*
X74616000Y-25400000D02*
X65786000Y-25400000D01*
X74616000Y-27940000D02*
X74616000Y-25400000D01*
X65786000Y-27940000D02*
X65786000Y-25400000D01*
X65786000Y-25400000D02*
X74616000Y-25400000D01*
X65786000Y-27940000D02*
X74616000Y-27940000D01*
X65786000Y-30480000D02*
X65786000Y-27940000D01*
X74616000Y-30480000D02*
X74616000Y-27940000D01*
X74616000Y-27940000D02*
X65786000Y-27940000D01*
X74616000Y-30480000D02*
X65786000Y-30480000D01*
X74616000Y-33020000D02*
X74616000Y-30480000D01*
X65786000Y-33020000D02*
X65786000Y-30480000D01*
X65786000Y-30480000D02*
X74616000Y-30480000D01*
X65786000Y-33020000D02*
X74616000Y-33020000D01*
X65786000Y-35560000D02*
X65786000Y-33020000D01*
X60826000Y-34290000D02*
X60826000Y-35840000D01*
X60826000Y-35840000D02*
X61976000Y-35840000D01*
X65786000Y-35560000D02*
X74616000Y-35560000D01*
X74616000Y-35560000D02*
X74616000Y-33020000D01*
X74616000Y-33020000D02*
X65786000Y-33020000D01*
X56050000Y-35792500D02*
X57950000Y-35792500D01*
X56050000Y-34692500D02*
X57950000Y-34692500D01*
X56950000Y-35242500D02*
X57400000Y-35242500D01*
X56900000Y-34992500D02*
X56900000Y-35492500D01*
X56900000Y-35242500D02*
X57150000Y-34992500D01*
X57150000Y-34992500D02*
X57150000Y-35492500D01*
X57150000Y-35492500D02*
X56900000Y-35242500D01*
X53256000Y-35792500D02*
X55156000Y-35792500D01*
X53256000Y-34692500D02*
X55156000Y-34692500D01*
X54156000Y-35242500D02*
X54606000Y-35242500D01*
X54106000Y-34992500D02*
X54106000Y-35492500D01*
X54106000Y-35242500D02*
X54356000Y-34992500D01*
X54356000Y-34992500D02*
X54356000Y-35492500D01*
X54356000Y-35492500D02*
X54106000Y-35242500D01*
X44874000Y-35792500D02*
X46774000Y-35792500D01*
X44874000Y-34692500D02*
X46774000Y-34692500D01*
X45774000Y-35242500D02*
X46224000Y-35242500D01*
X45724000Y-34992500D02*
X45724000Y-35492500D01*
X45724000Y-35242500D02*
X45974000Y-34992500D01*
X45974000Y-34992500D02*
X45974000Y-35492500D01*
X45974000Y-35492500D02*
X45724000Y-35242500D01*
X49868000Y-34692500D02*
X47968000Y-34692500D01*
X49868000Y-35792500D02*
X47968000Y-35792500D01*
X48968000Y-35242500D02*
X48518000Y-35242500D01*
X49018000Y-35492500D02*
X49018000Y-34992500D01*
X49018000Y-35242500D02*
X48768000Y-35492500D01*
X48768000Y-35492500D02*
X48768000Y-34992500D01*
X48768000Y-34992500D02*
X49018000Y-35242500D01*
X52662000Y-34692500D02*
X50762000Y-34692500D01*
X52662000Y-35792500D02*
X50762000Y-35792500D01*
X51762000Y-35242500D02*
X51312000Y-35242500D01*
X51812000Y-35492500D02*
X51812000Y-34992500D01*
X51812000Y-35242500D02*
X51562000Y-35492500D01*
X51562000Y-35492500D02*
X51562000Y-34992500D01*
X51562000Y-34992500D02*
X51812000Y-35242500D01*
X49738000Y-28681500D02*
X49738000Y-28981500D01*
X49738000Y-28981500D02*
X49438000Y-28981500D01*
X50638000Y-30881500D02*
X50638000Y-28681500D01*
X50638000Y-28681500D02*
X49438000Y-28681500D01*
X49438000Y-28681500D02*
X49438000Y-30881500D01*
X49438000Y-30881500D02*
X50638000Y-30881500D01*
X60103900Y-18725040D02*
X51403900Y-18725040D01*
X60103900Y-25130040D02*
X51403900Y-25130040D01*
X51403900Y-25130040D02*
X51403900Y-18725040D01*
X51403900Y-19955040D02*
X60103900Y-19955040D01*
X60103900Y-18725040D02*
X60103900Y-25130040D01*
X54042500Y-26510000D02*
X54542500Y-26510000D01*
X54542500Y-25560000D02*
X54042500Y-25560000D01*
X52989500Y-29841000D02*
X52989500Y-29341000D01*
X52039500Y-29341000D02*
X52039500Y-29841000D01*
X55228000Y-33278000D02*
X55228000Y-33778000D01*
X56278000Y-33778000D02*
X56278000Y-33278000D01*
X52434000Y-33278000D02*
X52434000Y-33778000D01*
X53484000Y-33778000D02*
X53484000Y-33278000D01*
X43417000Y-34484500D02*
X43417000Y-34984500D01*
X44467000Y-34984500D02*
X44467000Y-34484500D01*
X45229000Y-21586000D02*
X45229000Y-21086000D01*
X44179000Y-21086000D02*
X44179000Y-21586000D01*
X48383000Y-31352000D02*
X47883000Y-31352000D01*
X47883000Y-32402000D02*
X48383000Y-32402000D01*
X50288000Y-31352000D02*
X49788000Y-31352000D01*
X49788000Y-32402000D02*
X50288000Y-32402000D01*
X47705500Y-33778000D02*
X47705500Y-33278000D01*
X46655500Y-33278000D02*
X46655500Y-33778000D01*
X50880500Y-33778000D02*
X50880500Y-33278000D01*
X49830500Y-33278000D02*
X49830500Y-33778000D01*
X44200000Y-23448500D02*
X44700000Y-23448500D01*
X44700000Y-22398500D02*
X44200000Y-22398500D01*
X44798000Y-30793500D02*
X44798000Y-30293500D01*
X43848000Y-30293500D02*
X43848000Y-30793500D01*
X48354000Y-30031500D02*
X48354000Y-29531500D01*
X47404000Y-29531500D02*
X47404000Y-30031500D01*
X46160500Y-28290500D02*
X45660500Y-28290500D01*
X45660500Y-29240500D02*
X46160500Y-29240500D01*
X48864500Y-21276500D02*
X48864500Y-21776500D01*
X49814500Y-21776500D02*
X49814500Y-21276500D01*
X50071000Y-21276500D02*
X50071000Y-21776500D01*
X51021000Y-21776500D02*
X51021000Y-21276500D01*
X47650240Y-23299160D02*
X47650240Y-23250900D01*
X46949200Y-20500180D02*
X47650240Y-20500180D01*
X47650240Y-20500180D02*
X47650240Y-20749100D01*
X47650240Y-23299160D02*
X47650240Y-23499820D01*
X47650240Y-23499820D02*
X46949200Y-23499820D01*
X59544614Y-32145000D02*
G75*
G03X59544614Y-32145000I-158114J0D01*
G01*
X59786500Y-29845000D02*
X59786500Y-32545000D01*
X59786500Y-32545000D02*
X54386500Y-32545000D01*
X54386500Y-32545000D02*
X54386500Y-27145000D01*
X54386500Y-27145000D02*
X59786500Y-27145000D01*
X59786500Y-27145000D02*
X59786500Y-29895000D01*
X51021000Y-24189500D02*
X51021000Y-23689500D01*
X50071000Y-23689500D02*
X50071000Y-24189500D01*
X53246000Y-28198000D02*
X53246000Y-28698000D01*
X54196000Y-28698000D02*
X54196000Y-28198000D01*
X53006000Y-25420000D02*
X53006000Y-27920000D01*
X53006000Y-27920000D02*
X43006000Y-27920000D01*
X43006000Y-27920000D02*
X43006000Y-25420000D01*
X43006000Y-25420000D02*
X53006000Y-25420000D01*
X46837500Y-29780000D02*
X46837500Y-29680000D01*
X46837500Y-30280000D02*
X46837500Y-30180000D01*
X46837500Y-30780000D02*
X46837500Y-30680000D01*
X46837500Y-31280000D02*
X46837500Y-31180000D01*
X45237500Y-31180000D02*
X45237500Y-31280000D01*
X45237500Y-30680000D02*
X45237500Y-30780000D01*
X45237500Y-29680000D02*
X45237500Y-29780000D01*
X45237500Y-30180000D02*
X45237500Y-30280000D01*
X45027500Y-29480000D02*
X45047500Y-29480000D01*
X46837500Y-31280000D02*
X45237500Y-31280000D01*
X45237500Y-29680000D02*
X46837500Y-29680000D01*
X56476976Y-33597904D02*
X56934119Y-33597904D01*
X56705547Y-34397904D02*
X56705547Y-33597904D01*
X57124595Y-33597904D02*
X57657928Y-34397904D01*
X57657928Y-33597904D02*
X57124595Y-34397904D01*
X54159166Y-34397904D02*
X53892500Y-34016952D01*
X53702023Y-34397904D02*
X53702023Y-33597904D01*
X54006785Y-33597904D01*
X54082976Y-33636000D01*
X54121071Y-33674095D01*
X54159166Y-33750285D01*
X54159166Y-33864571D01*
X54121071Y-33940761D01*
X54082976Y-33978857D01*
X54006785Y-34016952D01*
X53702023Y-34016952D01*
X54425833Y-33597904D02*
X54959166Y-34397904D01*
X54959166Y-33597904D02*
X54425833Y-34397904D01*
X44462833Y-34397904D02*
X44462833Y-33597904D01*
X44767595Y-33597904D01*
X44843785Y-33636000D01*
X44881880Y-33674095D01*
X44919976Y-33750285D01*
X44919976Y-33864571D01*
X44881880Y-33940761D01*
X44843785Y-33978857D01*
X44767595Y-34016952D01*
X44462833Y-34016952D01*
X45186642Y-33597904D02*
X45377119Y-34397904D01*
X45529500Y-33826476D01*
X45681880Y-34397904D01*
X45872357Y-33597904D01*
X46634261Y-34397904D02*
X46367595Y-34016952D01*
X46177119Y-34397904D02*
X46177119Y-33597904D01*
X46481880Y-33597904D01*
X46558071Y-33636000D01*
X46596166Y-33674095D01*
X46634261Y-33750285D01*
X46634261Y-33864571D01*
X46596166Y-33940761D01*
X46558071Y-33978857D01*
X46481880Y-34016952D01*
X46177119Y-34016952D01*
X47815619Y-33597904D02*
X48310857Y-33597904D01*
X48044190Y-33902666D01*
X48158476Y-33902666D01*
X48234666Y-33940761D01*
X48272761Y-33978857D01*
X48310857Y-34055047D01*
X48310857Y-34245523D01*
X48272761Y-34321714D01*
X48234666Y-34359809D01*
X48158476Y-34397904D01*
X47929904Y-34397904D01*
X47853714Y-34359809D01*
X47815619Y-34321714D01*
X48577523Y-33864571D02*
X48768000Y-34397904D01*
X48958476Y-33864571D01*
X49187047Y-33597904D02*
X49682285Y-33597904D01*
X49415619Y-33902666D01*
X49529904Y-33902666D01*
X49606095Y-33940761D01*
X49644190Y-33978857D01*
X49682285Y-34055047D01*
X49682285Y-34245523D01*
X49644190Y-34321714D01*
X49606095Y-34359809D01*
X49529904Y-34397904D01*
X49301333Y-34397904D01*
X49225142Y-34359809D01*
X49187047Y-34321714D01*
X51511214Y-33597904D02*
X51130261Y-33597904D01*
X51092166Y-33978857D01*
X51130261Y-33940761D01*
X51206452Y-33902666D01*
X51396928Y-33902666D01*
X51473119Y-33940761D01*
X51511214Y-33978857D01*
X51549309Y-34055047D01*
X51549309Y-34245523D01*
X51511214Y-34321714D01*
X51473119Y-34359809D01*
X51396928Y-34397904D01*
X51206452Y-34397904D01*
X51130261Y-34359809D01*
X51092166Y-34321714D01*
X51815976Y-33864571D02*
X52006452Y-34397904D01*
X52196928Y-33864571D01*
M02*
