G04 #@! TF.FileFunction,Copper,L1,Top,Signal*
%FSLAX46Y46*%
G04 Gerber Fmt 4.6, Leading zero omitted, Abs format (unit mm)*
G04 Created by KiCad (PCBNEW (2016-06-01 BZR 6870, Git 0ccd3bb)-product) date 06/04/16 15:16:18*
%MOMM*%
%LPD*%
G01*
G04 APERTURE LIST*
%ADD10C,0.150000*%
%ADD11R,1.727200X1.727200*%
%ADD12O,1.727200X1.727200*%
%ADD13R,0.797560X0.797560*%
%ADD14R,0.660400X0.406400*%
%ADD15R,0.400000X1.350000*%
%ADD16O,1.250000X0.950000*%
%ADD17O,1.000000X1.550000*%
%ADD18R,0.600000X0.500000*%
%ADD19R,0.500000X0.600000*%
%ADD20R,0.600000X0.400000*%
%ADD21R,0.400000X0.600000*%
%ADD22R,0.800100X0.800100*%
%ADD23R,0.300000X0.600000*%
%ADD24R,0.600000X0.300000*%
%ADD25R,3.200000X3.200000*%
%ADD26R,0.350000X0.250000*%
%ADD27R,0.500000X1.250000*%
%ADD28C,1.600000*%
%ADD29C,0.600000*%
%ADD30C,0.250000*%
G04 APERTURE END LIST*
D10*
D11*
X61976000Y-34290000D03*
D12*
X64516000Y-34290000D03*
X61976000Y-31750000D03*
X64516000Y-31750000D03*
X61976000Y-29210000D03*
X64516000Y-29210000D03*
X61976000Y-26670000D03*
X64516000Y-26670000D03*
X61976000Y-24130000D03*
X64516000Y-24130000D03*
X61976000Y-21590000D03*
X64516000Y-21590000D03*
D13*
X57899300Y-35242500D03*
X56400700Y-35242500D03*
X55105300Y-35242500D03*
X53606700Y-35242500D03*
X46723300Y-35242500D03*
X45224700Y-35242500D03*
X48018700Y-35242500D03*
X49517300Y-35242500D03*
X50812700Y-35242500D03*
X52311300Y-35242500D03*
D14*
X49022000Y-29121100D03*
X49022000Y-30441900D03*
X49022000Y-29781500D03*
X51054000Y-30441900D03*
X51054000Y-29121100D03*
D15*
X57053900Y-24105040D03*
X56403900Y-24105040D03*
X55753900Y-24105040D03*
X55103900Y-24105040D03*
X54453900Y-24105040D03*
D16*
X58253900Y-24105040D03*
X53253900Y-24105040D03*
D17*
X59253900Y-21405040D03*
X52253900Y-21405040D03*
D18*
X54842500Y-26035000D03*
X53742500Y-26035000D03*
D19*
X52514500Y-29041000D03*
X52514500Y-30141000D03*
D20*
X55753000Y-33978000D03*
X55753000Y-33078000D03*
X52959000Y-33978000D03*
X52959000Y-33078000D03*
X43942000Y-35184500D03*
X43942000Y-34284500D03*
X44704000Y-20886000D03*
X44704000Y-21786000D03*
D21*
X47683000Y-31877000D03*
X48583000Y-31877000D03*
X49588000Y-31877000D03*
X50488000Y-31877000D03*
D20*
X47180500Y-33078000D03*
X47180500Y-33978000D03*
X50355500Y-33078000D03*
X50355500Y-33978000D03*
D21*
X44900000Y-22923500D03*
X44000000Y-22923500D03*
D19*
X44323000Y-29993500D03*
X44323000Y-31093500D03*
X47879000Y-29231500D03*
X47879000Y-30331500D03*
D18*
X45360500Y-28765500D03*
X46460500Y-28765500D03*
D19*
X49339500Y-22076500D03*
X49339500Y-20976500D03*
X50546000Y-22076500D03*
X50546000Y-20976500D03*
D22*
X45999240Y-21050000D03*
X45999240Y-22950000D03*
X47998220Y-22000000D03*
D23*
X55336500Y-32145000D03*
X55836500Y-32145000D03*
X56336500Y-32145000D03*
X56836500Y-32145000D03*
X57336500Y-32145000D03*
X57836500Y-32145000D03*
X58336500Y-32145000D03*
X58836500Y-32145000D03*
X55336500Y-27545000D03*
X55836500Y-27545000D03*
X56336500Y-27545000D03*
X56836500Y-27545000D03*
X58836500Y-27545000D03*
X58336500Y-27545000D03*
X57836500Y-27545000D03*
D24*
X59386500Y-29595000D03*
X59386500Y-28095000D03*
X54786500Y-31095000D03*
X54786500Y-29095000D03*
X54786500Y-28595000D03*
X54786500Y-31595000D03*
X54786500Y-30095000D03*
X59386500Y-29095000D03*
X59386500Y-28595000D03*
X54786500Y-30595000D03*
X54786500Y-29595000D03*
X54786500Y-28095000D03*
X59386500Y-31595000D03*
X59386500Y-31095000D03*
X59386500Y-30595000D03*
D25*
X57086500Y-29845000D03*
D24*
X59386500Y-30095000D03*
D23*
X57336500Y-27545000D03*
D19*
X50546000Y-23389500D03*
X50546000Y-24489500D03*
X53721000Y-28998000D03*
X53721000Y-27898000D03*
D26*
X46737500Y-30980000D03*
X46737500Y-30480000D03*
X46737500Y-29980000D03*
X45337500Y-30980000D03*
X45337500Y-29980000D03*
X45337500Y-30480000D03*
D27*
X46037500Y-30480000D03*
D28*
X48006000Y-26670000D03*
X50546000Y-26670000D03*
X45466000Y-26670000D03*
D29*
X53213000Y-29845000D03*
X54197250Y-26892250D03*
X56578500Y-30861000D03*
X57594500Y-30861000D03*
X56578500Y-28829000D03*
X57594500Y-28829000D03*
X54673500Y-32258000D03*
X43942000Y-33464500D03*
X46037500Y-31369000D03*
X46037500Y-29591000D03*
X47879000Y-31051500D03*
X50038000Y-30861000D03*
X51752500Y-34226500D03*
X60642500Y-24638000D03*
X46990000Y-23114000D03*
X48768000Y-28511500D03*
X52006500Y-32258000D03*
X54292500Y-34163000D03*
X57848500Y-34226500D03*
X60579000Y-31750000D03*
X51943000Y-23177500D03*
X53530500Y-22606000D03*
X60515500Y-28003500D03*
X59944000Y-35115500D03*
X56388000Y-25273000D03*
X55753000Y-26416000D03*
D30*
X55336500Y-27445000D02*
X55336500Y-27015500D01*
X54842500Y-26521500D02*
X54842500Y-26035000D01*
X55336500Y-27015500D02*
X54842500Y-26521500D01*
X53721000Y-27898000D02*
X53721000Y-27368500D01*
X53721000Y-27368500D02*
X54197250Y-26892250D01*
X52514500Y-30141000D02*
X52917000Y-30141000D01*
X52917000Y-30141000D02*
X53213000Y-29845000D01*
X50546000Y-24489500D02*
X50715000Y-24320500D01*
X50715000Y-24320500D02*
X53038440Y-24320500D01*
X53038440Y-24320500D02*
X53253900Y-24105040D01*
X50546000Y-20976500D02*
X50974540Y-21405040D01*
X50974540Y-21405040D02*
X52253900Y-21405040D01*
X57086500Y-29845000D02*
X57086500Y-30353000D01*
X57086500Y-30353000D02*
X56578500Y-30861000D01*
X57086500Y-30353000D02*
X57594500Y-30861000D01*
X56578500Y-28829000D02*
X57086500Y-29845000D01*
X57086500Y-29845000D02*
X57086500Y-29337000D01*
X57086500Y-29337000D02*
X57594500Y-28829000D01*
X59253900Y-21405040D02*
X61727540Y-21405040D01*
X58561500Y-30095000D02*
X57949000Y-30707500D01*
X55836500Y-31095000D02*
X56224000Y-30707500D01*
X55611500Y-29595000D02*
X56224000Y-28982500D01*
X54686500Y-29595000D02*
X55611500Y-29595000D01*
X54686500Y-31595000D02*
X54686500Y-32245000D01*
X54686500Y-32245000D02*
X54673500Y-32258000D01*
X55836500Y-32245000D02*
X55836500Y-31095000D01*
X59486500Y-30095000D02*
X58561500Y-30095000D01*
X43942000Y-34284500D02*
X43942000Y-33464500D01*
X46037500Y-30480000D02*
X46037500Y-31369000D01*
X46037500Y-30480000D02*
X46037500Y-29591000D01*
X47879000Y-30331500D02*
X47879000Y-31051500D01*
X47879000Y-30331500D02*
X48429000Y-29781500D01*
X48429000Y-29781500D02*
X49022000Y-29781500D01*
X45337500Y-30480000D02*
X44936500Y-30480000D01*
X44936500Y-30480000D02*
X44323000Y-31093500D01*
X45337500Y-30480000D02*
X46037500Y-30480000D01*
X45360500Y-28765500D02*
X46037500Y-29442500D01*
X46037500Y-29442500D02*
X46037500Y-30480000D01*
X50488000Y-31877000D02*
X50488000Y-31311000D01*
X50488000Y-31311000D02*
X50038000Y-30861000D01*
X52311300Y-35242500D02*
X51752500Y-34683700D01*
X51752500Y-34683700D02*
X51752500Y-34226500D01*
X54682500Y-29591000D02*
X54686500Y-29595000D01*
X52206360Y-21357500D02*
X52253900Y-21405040D01*
X54686500Y-28095000D02*
X54686500Y-27381500D01*
X53742500Y-26437500D02*
X53742500Y-26035000D01*
X54686500Y-27381500D02*
X53742500Y-26437500D01*
X53742500Y-26035000D02*
X53253900Y-25546400D01*
X53253900Y-25546400D02*
X53253900Y-24105040D01*
X54453900Y-24105040D02*
X53253900Y-24105040D01*
X53250440Y-24108500D02*
X53253900Y-24105040D01*
X61727540Y-21405040D02*
X61976000Y-21653500D01*
X53721000Y-28998000D02*
X53818000Y-29095000D01*
X53818000Y-29095000D02*
X54786500Y-29095000D01*
X52514500Y-29041000D02*
X53678000Y-29041000D01*
X53678000Y-29041000D02*
X53721000Y-28998000D01*
X57053900Y-24105040D02*
X57053900Y-23398900D01*
X57053900Y-23398900D02*
X56705500Y-23050500D01*
X52768500Y-23304500D02*
X52260500Y-23812500D01*
X52260500Y-23812500D02*
X51689000Y-23812500D01*
X56705500Y-23050500D02*
X54102000Y-23050500D01*
X54102000Y-23050500D02*
X53848000Y-23304500D01*
X50546000Y-23389500D02*
X51266000Y-23389500D01*
X51689000Y-23812500D02*
X51266000Y-23389500D01*
X53848000Y-23304500D02*
X52768500Y-23304500D01*
X53657500Y-28998000D02*
X53754500Y-29095000D01*
X52514500Y-29041000D02*
X52557500Y-28998000D01*
X52514500Y-29041000D02*
X52434400Y-29121100D01*
X52434400Y-29121100D02*
X51054000Y-29121100D01*
X52324000Y-26797000D02*
X52514500Y-26987500D01*
X52324000Y-26797000D02*
X51054000Y-25527000D01*
X46164500Y-25527000D02*
X51054000Y-25527000D01*
X52514500Y-26987500D02*
X52514500Y-29041000D01*
X46164500Y-25527000D02*
X46164500Y-25590500D01*
X46164500Y-25590500D02*
X46164500Y-25527000D01*
X47434500Y-24257000D02*
X46164500Y-25527000D01*
X46164500Y-25527000D02*
X45466000Y-26225500D01*
X45466000Y-26225500D02*
X45466000Y-26670000D01*
X50546000Y-23389500D02*
X48302000Y-23389500D01*
X48302000Y-23389500D02*
X47434500Y-24257000D01*
X44323000Y-29993500D02*
X44323000Y-27813000D01*
X44323000Y-27813000D02*
X45466000Y-26670000D01*
X47180500Y-33078000D02*
X46932000Y-33078000D01*
X46932000Y-33078000D02*
X46482000Y-33528000D01*
X46482000Y-33528000D02*
X46482000Y-35001200D01*
X46482000Y-35001200D02*
X46723300Y-35242500D01*
X46609000Y-32131000D02*
X47180500Y-32702500D01*
X47180500Y-32702500D02*
X47180500Y-33078000D01*
X46228000Y-32131000D02*
X45148500Y-32131000D01*
X45148500Y-32131000D02*
X44735750Y-31718250D01*
X44323000Y-29993500D02*
X43688000Y-30628500D01*
X43688000Y-30628500D02*
X43688000Y-31496000D01*
X43688000Y-31496000D02*
X43942000Y-31750000D01*
X43942000Y-31750000D02*
X44704000Y-31750000D01*
X44704000Y-31750000D02*
X44735750Y-31718250D01*
X45337500Y-31116500D02*
X45337500Y-30980000D01*
X44735750Y-31718250D02*
X45337500Y-31116500D01*
X45337500Y-29980000D02*
X44336500Y-29980000D01*
X44336500Y-29980000D02*
X44323000Y-29993500D01*
X47429000Y-32131000D02*
X47683000Y-31877000D01*
X46228000Y-32131000D02*
X46164500Y-32131000D01*
X46164500Y-32131000D02*
X46609000Y-32131000D01*
X46609000Y-32131000D02*
X47429000Y-32131000D01*
X49339500Y-22076500D02*
X48074720Y-22076500D01*
X48074720Y-22076500D02*
X47998220Y-22000000D01*
X50546000Y-22076500D02*
X49339500Y-22076500D01*
X51435000Y-22076500D02*
X51477000Y-22076500D01*
X51477000Y-22076500D02*
X51943000Y-22542500D01*
X51943000Y-22542500D02*
X52578000Y-22542500D01*
X60642500Y-23177500D02*
X60642500Y-24638000D01*
X52578000Y-22542500D02*
X53213000Y-21907500D01*
X53213000Y-21907500D02*
X58293000Y-21907500D01*
X58293000Y-21907500D02*
X58928000Y-22542500D01*
X58928000Y-22542500D02*
X60007500Y-22542500D01*
X60007500Y-22542500D02*
X60642500Y-23177500D01*
X50546000Y-22076500D02*
X51435000Y-22076500D01*
X51435000Y-22076500D02*
X51477000Y-22076500D01*
X44704000Y-20886000D02*
X45835240Y-20886000D01*
X45835240Y-20886000D02*
X45999240Y-21050000D01*
X49339500Y-20976500D02*
X49266000Y-21050000D01*
X49266000Y-21050000D02*
X45999240Y-21050000D01*
X44900000Y-22923500D02*
X45972740Y-22923500D01*
X45972740Y-22923500D02*
X45999240Y-22950000D01*
X45962240Y-22987000D02*
X45999240Y-22950000D01*
X46990000Y-23114000D02*
X46826000Y-22950000D01*
X46826000Y-22950000D02*
X45999240Y-22950000D01*
X49022000Y-28765500D02*
X48768000Y-28511500D01*
X49022000Y-29121100D02*
X49022000Y-28765500D01*
X49504600Y-29121100D02*
X49022000Y-29121100D01*
X50101500Y-29718000D02*
X49504600Y-29121100D01*
X51371500Y-29718000D02*
X50101500Y-29718000D01*
X51752500Y-30099000D02*
X51371500Y-29718000D01*
X51752500Y-32004000D02*
X51752500Y-30099000D01*
X52006500Y-32258000D02*
X51752500Y-32004000D01*
X54292500Y-34163000D02*
X55105300Y-34975800D01*
X55105300Y-34975800D02*
X55105300Y-35242500D01*
X59486500Y-31595000D02*
X60424000Y-31595000D01*
X57899300Y-34277300D02*
X57899300Y-35242500D01*
X57848500Y-34226500D02*
X57899300Y-34277300D01*
X60424000Y-31595000D02*
X60579000Y-31750000D01*
X55753000Y-33978000D02*
X55753000Y-34594800D01*
X55753000Y-34594800D02*
X56400700Y-35242500D01*
X56400700Y-35006700D02*
X56400700Y-35242500D01*
X56388000Y-35229800D02*
X56400700Y-35242500D01*
X56400700Y-35242500D02*
X56400700Y-35229800D01*
X52959000Y-33978000D02*
X53606700Y-34625700D01*
X53606700Y-34625700D02*
X53606700Y-35242500D01*
X53594000Y-35229800D02*
X53606700Y-35242500D01*
X43942000Y-35184500D02*
X45166700Y-35184500D01*
X45166700Y-35184500D02*
X45224700Y-35242500D01*
X48018700Y-35242500D02*
X48018700Y-34816200D01*
X48018700Y-34816200D02*
X47180500Y-33978000D01*
X50355500Y-33978000D02*
X50812700Y-34435200D01*
X50812700Y-34435200D02*
X50812700Y-35242500D01*
X44000000Y-22923500D02*
X44000000Y-22040000D01*
X44254000Y-21786000D02*
X44704000Y-21786000D01*
X44000000Y-22040000D02*
X44254000Y-21786000D01*
X45148500Y-23749000D02*
X44386500Y-23749000D01*
X48260000Y-22733000D02*
X47244000Y-23749000D01*
X51879500Y-23177500D02*
X51435000Y-22733000D01*
X51435000Y-22733000D02*
X48260000Y-22733000D01*
X51943000Y-23177500D02*
X51879500Y-23177500D01*
X47244000Y-23749000D02*
X45148500Y-23749000D01*
X44000000Y-23362500D02*
X44000000Y-22923500D01*
X44386500Y-23749000D02*
X44000000Y-23362500D01*
X51879500Y-23114000D02*
X51943000Y-23177500D01*
X53530500Y-22606000D02*
X53657500Y-22479000D01*
X53657500Y-22479000D02*
X58039000Y-22479000D01*
X58039000Y-22479000D02*
X59563000Y-24003000D01*
X59563000Y-24003000D02*
X59563000Y-24701500D01*
X59563000Y-24701500D02*
X57836500Y-26428000D01*
X57836500Y-27445000D02*
X57836500Y-26428000D01*
X54786500Y-30095000D02*
X54100090Y-30095000D01*
X54100090Y-30095000D02*
X52959000Y-31236090D01*
X52959000Y-31236090D02*
X52959000Y-32628000D01*
X52959000Y-32628000D02*
X52959000Y-33078000D01*
X55753000Y-33078000D02*
X54568498Y-33078000D01*
X54568498Y-33078000D02*
X54048499Y-32558001D01*
X54048499Y-32558001D02*
X54048499Y-30783001D01*
X54048499Y-30783001D02*
X54236500Y-30595000D01*
X54236500Y-30595000D02*
X54786500Y-30595000D01*
X47879000Y-28461000D02*
X49670000Y-26670000D01*
X47879000Y-29231500D02*
X47879000Y-28461000D01*
X49670000Y-26670000D02*
X50546000Y-26670000D01*
X47879000Y-29231500D02*
X47244000Y-29866500D01*
X47188500Y-30980000D02*
X46737500Y-30980000D01*
X47244000Y-30924500D02*
X47188500Y-30980000D01*
X47244000Y-29866500D02*
X47244000Y-30924500D01*
X59486500Y-31095000D02*
X59506500Y-31115000D01*
X59506500Y-31115000D02*
X61277500Y-31115000D01*
X61277500Y-31115000D02*
X61976000Y-31813500D01*
X59386500Y-30595000D02*
X59936500Y-30595000D01*
X59936500Y-30595000D02*
X60132899Y-30398601D01*
X60132899Y-30398601D02*
X63327399Y-30398601D01*
X63327399Y-30398601D02*
X63652401Y-30073599D01*
X63652401Y-30073599D02*
X64516000Y-29210000D01*
X59486500Y-30595000D02*
X59498500Y-30607000D01*
X59386500Y-29095000D02*
X60331870Y-29095000D01*
X60331870Y-29095000D02*
X61568269Y-27858601D01*
X61568269Y-27858601D02*
X62565399Y-27858601D01*
X62565399Y-27858601D02*
X63246000Y-27178000D01*
X63246000Y-25463500D02*
X64516000Y-24193500D01*
X63246000Y-27178000D02*
X63246000Y-25463500D01*
X59386500Y-28595000D02*
X59924000Y-28595000D01*
X59924000Y-28595000D02*
X60515500Y-28003500D01*
X59386500Y-28095000D02*
X59498998Y-28095000D01*
X59498998Y-28095000D02*
X60787399Y-26806599D01*
X60787399Y-26806599D02*
X60787399Y-25418103D01*
X60787399Y-25418103D02*
X61976000Y-24229502D01*
X61976000Y-24229502D02*
X61976000Y-24130000D01*
X57836500Y-33008000D02*
X59944000Y-35115500D01*
X57836500Y-32245000D02*
X57836500Y-33008000D01*
X58336500Y-32245000D02*
X58336500Y-32746000D01*
X58336500Y-32746000D02*
X58547000Y-32956500D01*
X63018202Y-35560000D02*
X63327399Y-35250803D01*
X63652401Y-32613599D02*
X64516000Y-31750000D01*
X58547000Y-32956500D02*
X60134500Y-32956500D01*
X60134500Y-32956500D02*
X60769500Y-33591500D01*
X60769500Y-35306000D02*
X61023500Y-35560000D01*
X60769500Y-33591500D02*
X60769500Y-35306000D01*
X61023500Y-35560000D02*
X63018202Y-35560000D01*
X63327399Y-35250803D02*
X63327399Y-32938601D01*
X63327399Y-32938601D02*
X63652401Y-32613599D01*
X58836500Y-32245000D02*
X58976500Y-32385000D01*
X60833000Y-32385000D02*
X61976000Y-33528000D01*
X58976500Y-32385000D02*
X60833000Y-32385000D01*
X61976000Y-33528000D02*
X61976000Y-34353500D01*
X55753900Y-25527900D02*
X56388000Y-26162000D01*
X55753900Y-25527000D02*
X55753900Y-25527900D01*
X55753900Y-24105040D02*
X55753900Y-25527000D01*
X56324500Y-26670000D02*
X56324500Y-27433000D01*
X56388000Y-26670000D02*
X56324500Y-26670000D01*
X56388000Y-26606500D02*
X56388000Y-26670000D01*
X56388000Y-26162000D02*
X56388000Y-26606500D01*
X56324500Y-27433000D02*
X56336500Y-27445000D01*
X56403900Y-25257100D02*
X56388000Y-25273000D01*
X56403900Y-24105040D02*
X56403900Y-25257100D01*
X55753000Y-26416000D02*
X55836500Y-26499500D01*
X55836500Y-26499500D02*
X55836500Y-27445000D01*
X50355500Y-33078000D02*
X50350000Y-33083500D01*
X50350000Y-33083500D02*
X49720500Y-33083500D01*
X49517300Y-33286700D02*
X49517300Y-35242500D01*
X49720500Y-33083500D02*
X49517300Y-33286700D01*
X50361000Y-33078000D02*
X51054000Y-32385000D01*
X51054000Y-32321500D02*
X51054000Y-30441900D01*
X51054000Y-32385000D02*
X51054000Y-32321500D01*
X50361000Y-33078000D02*
X50355500Y-33078000D01*
X46737500Y-29980000D02*
X46737500Y-29042500D01*
X46737500Y-29042500D02*
X46460500Y-28765500D01*
X48583000Y-31877000D02*
X48583000Y-30880900D01*
X48583000Y-30880900D02*
X49022000Y-30441900D01*
X49588000Y-31877000D02*
X48583000Y-31877000D01*
M02*
