M48
;DRILL file {KiCad (2016-06-01 BZR 6870, Git 0ccd3bb)-product} date 06/04/16 15:12:40
;FORMAT={-:-/ absolute / inch / decimal}
FMAT,2
INCH,TZ
T1C0.016
T2C0.033
T3C0.040
%
G90
G05
M72
T1
X1.41Y-1.535
X1.4125Y-1.7125
X1.49Y-1.625
X1.535Y-0.895
X1.5925Y-1.41
X1.5925Y-1.535
X1.5925Y-1.7125
X1.5925Y-1.915
X1.5925Y-1.9725
X1.5925Y-2.025
X1.595Y-0.8675
X1.605Y-2.185
X1.6126Y-1.5011
X1.64Y-0.815
X1.6427Y-1.535
X1.6427Y-1.7125
X1.6467Y-0.9159
X1.6604Y-1.442
X1.6604Y-1.915
X1.6689Y-0.8936
X1.6704Y-0.9375
X1.6782Y-2.025
X1.695Y-0.87
X1.6959Y-1.3725
X1.7028Y-2.1319
X1.715Y-1.9725
X1.7198Y-1.405
X1.7275Y-0.9375
X1.755Y-1.4675
X1.755Y-1.5
X1.7575Y-1.3725
X2.1925Y-0.8475
X2.265Y-0.7875
T2
X0.9675Y-0.8326
X0.9675Y-1.4625
X1.0463Y-0.8326
X1.0463Y-1.4625
X1.125Y-0.8326
X1.125Y-1.4625
X1.2038Y-0.8326
X1.2038Y-1.4625
X1.2825Y-0.8326
X1.2825Y-1.4625
X1.3612Y-0.8326
X1.3612Y-1.4625
X1.44Y-0.8326
X1.44Y-1.4625
X1.5187Y-0.8326
X1.5187Y-1.4625
X1.5581Y-0.9507
X1.5581Y-1.0294
X1.5581Y-1.1082
X1.5581Y-1.1869
X1.5581Y-1.2656
X1.5581Y-1.3444
X2.0915Y-0.9231
X2.0915Y-1.5019
X2.1915Y-0.9231
X2.1915Y-1.5019
X2.2915Y-0.9231
X2.2915Y-1.5019
X2.3915Y-0.9231
X2.3915Y-1.5019
T3
X1.42Y-1.865
X1.42Y-1.965
X1.42Y-2.065
X1.42Y-2.165
X1.52Y-1.865
X1.52Y-1.965
X1.52Y-2.065
X1.52Y-2.165
X2.2975Y-1.755
X2.2975Y-1.855
X2.2975Y-1.955
X2.2975Y-2.055
X2.2975Y-2.155
X2.2975Y-2.255
X2.3975Y-1.755
X2.3975Y-1.855
X2.3975Y-1.955
X2.3975Y-2.055
X2.3975Y-2.155
X2.3975Y-2.255
T0
M30
