G04 #@! TF.FileFunction,Copper,L1,Top,Signal*
%FSLAX46Y46*%
G04 Gerber Fmt 4.6, Leading zero omitted, Abs format (unit mm)*
G04 Created by KiCad (PCBNEW (2016-06-01 BZR 6870, Git 0ccd3bb)-product) date 06/04/16 15:12:46*
%MOMM*%
%LPD*%
G01*
G04 APERTURE LIST*
%ADD10C,0.150000*%
%ADD11C,1.700000*%
%ADD12R,0.750000X0.800000*%
%ADD13R,1.727200X1.727200*%
%ADD14O,1.727200X1.727200*%
%ADD15C,0.600000*%
%ADD16C,0.250000*%
G04 APERTURE END LIST*
D10*
D11*
X39575500Y-34147500D03*
X24575500Y-37147500D03*
X38575500Y-21147500D03*
X26575500Y-37147500D03*
X28575500Y-37147500D03*
X30575500Y-37147500D03*
X32575500Y-37147500D03*
X34575500Y-37147500D03*
X36575500Y-37147500D03*
X38575500Y-37147500D03*
X36575500Y-21147500D03*
X34575500Y-21147500D03*
X32575500Y-21147500D03*
X30575500Y-21147500D03*
X28575500Y-21147500D03*
X26575500Y-21147500D03*
X24575500Y-21147500D03*
X39575500Y-32147500D03*
X39575500Y-30147500D03*
X39575500Y-28147500D03*
X39575500Y-26147500D03*
X39575500Y-24147500D03*
X53123500Y-23447500D03*
X53123500Y-38147500D03*
X55663500Y-38147500D03*
X58203500Y-38147500D03*
X60743500Y-38147500D03*
X55663500Y-23447500D03*
X58203500Y-23447500D03*
X60743500Y-23447500D03*
D12*
X38608000Y-43485500D03*
X38608000Y-41985500D03*
X37084000Y-43497500D03*
X37084000Y-41997500D03*
X37084000Y-39052500D03*
X37084000Y-40552500D03*
X38608000Y-39064500D03*
X38608000Y-40564500D03*
X58293000Y-21514500D03*
X58293000Y-20014500D03*
X56769000Y-21514500D03*
X56769000Y-20014500D03*
D13*
X58356500Y-44577000D03*
D14*
X60896500Y-44577000D03*
X58356500Y-47117000D03*
X60896500Y-47117000D03*
X58356500Y-49657000D03*
X60896500Y-49657000D03*
X58356500Y-52197000D03*
X60896500Y-52197000D03*
X58356500Y-54737000D03*
X60896500Y-54737000D03*
X58356500Y-57277000D03*
X60896500Y-57277000D03*
D13*
X36068000Y-54991000D03*
D14*
X38608000Y-54991000D03*
X36068000Y-52451000D03*
X38608000Y-52451000D03*
X36068000Y-49911000D03*
X38608000Y-49911000D03*
X36068000Y-47371000D03*
X38608000Y-47371000D03*
D15*
X57531000Y-20002500D03*
X44577000Y-38100000D03*
X40960966Y-38128921D03*
X37846000Y-41275000D03*
X43878500Y-23812500D03*
X42427998Y-23812500D03*
X42389673Y-22696781D03*
X38989000Y-22733000D03*
X40449500Y-51435000D03*
X42625030Y-51435000D03*
X55689500Y-21526500D03*
X35814000Y-38989000D03*
X40449500Y-38989000D03*
X41725010Y-38989000D03*
X35877500Y-43497500D03*
X40449500Y-43497500D03*
X41725010Y-43497500D03*
X41825522Y-23264014D03*
X40513000Y-22034498D03*
X44577000Y-37274500D03*
X42175020Y-36625844D03*
X40449500Y-48641000D03*
X42175020Y-48641000D03*
X43250031Y-54149991D03*
X41656002Y-20701000D03*
X43053000Y-22098000D03*
X44640500Y-34861500D03*
X43075040Y-34861500D03*
X40767000Y-55499000D03*
X43681932Y-35687444D03*
X40449500Y-35814000D03*
X40449500Y-50101500D03*
X43561000Y-50101500D03*
D16*
X57531000Y-20002500D02*
X58281000Y-20002500D01*
X58281000Y-20002500D02*
X58293000Y-20014500D01*
X57531000Y-20002500D02*
X56781000Y-20002500D01*
X56781000Y-20002500D02*
X56769000Y-20014500D01*
X40960966Y-38128921D02*
X44548079Y-38128921D01*
X44548079Y-38128921D02*
X44577000Y-38100000D01*
X37846000Y-41275000D02*
X37897500Y-41275000D01*
X37897500Y-41275000D02*
X38608000Y-41985500D01*
X37846000Y-41275000D02*
X37806500Y-41275000D01*
X37806500Y-41275000D02*
X37084000Y-41997500D01*
X37806500Y-41275000D02*
X37084000Y-40552500D01*
X37897500Y-41275000D02*
X38608000Y-40564500D01*
X42427998Y-23812500D02*
X43878500Y-23812500D01*
X39824499Y-21543999D02*
X40031649Y-21336849D01*
X38989000Y-22733000D02*
X39824499Y-21897501D01*
X39824499Y-21897501D02*
X39824499Y-21543999D01*
X40031649Y-21336849D02*
X41029741Y-21336849D01*
X41029741Y-21336849D02*
X42089674Y-22396782D01*
X42089674Y-22396782D02*
X42389673Y-22696781D01*
X42625030Y-51435000D02*
X40449500Y-51435000D01*
X58293000Y-21514500D02*
X58293000Y-21539500D01*
X58293000Y-21539500D02*
X60201000Y-23447500D01*
X60201000Y-23447500D02*
X60743500Y-23447500D01*
X56769000Y-21514500D02*
X58293000Y-21514500D01*
X55689500Y-21526500D02*
X56757000Y-21526500D01*
X56757000Y-21526500D02*
X56769000Y-21514500D01*
X38608000Y-39064500D02*
X38608000Y-37180000D01*
X38608000Y-37180000D02*
X38575500Y-37147500D01*
X37084000Y-39052500D02*
X38596000Y-39052500D01*
X38596000Y-39052500D02*
X38608000Y-39064500D01*
X35814000Y-38989000D02*
X37020500Y-38989000D01*
X37020500Y-38989000D02*
X37084000Y-39052500D01*
X41725010Y-38989000D02*
X40449500Y-38989000D01*
X35877500Y-43497500D02*
X37084000Y-43497500D01*
X41725010Y-43497500D02*
X40449500Y-43497500D01*
X38608000Y-43485500D02*
X38608000Y-47371000D01*
X38608000Y-43485500D02*
X37096000Y-43485500D01*
X37096000Y-43485500D02*
X37084000Y-43497500D01*
X38608000Y-52451000D02*
X39796601Y-51262399D01*
X39796601Y-51262399D02*
X39796601Y-48559601D01*
X39796601Y-48559601D02*
X39471599Y-48234599D01*
X39471599Y-48234599D02*
X38608000Y-47371000D01*
X40513000Y-22034498D02*
X41742516Y-23264014D01*
X41742516Y-23264014D02*
X41825522Y-23264014D01*
X42175020Y-36625844D02*
X43928344Y-36625844D01*
X43928344Y-36625844D02*
X44577000Y-37274500D01*
X42175020Y-48641000D02*
X40449500Y-48641000D01*
X43250031Y-54149991D02*
X42116009Y-54149991D01*
X42116009Y-54149991D02*
X40767000Y-55499000D01*
X42037000Y-21082000D02*
X41737001Y-20781999D01*
X43053000Y-22098000D02*
X42037000Y-21082000D01*
X41737001Y-20781999D02*
X41656002Y-20701000D01*
X43075040Y-34861500D02*
X44640500Y-34861500D01*
X40789040Y-55476960D02*
X40767000Y-55499000D01*
X43555376Y-35814000D02*
X43681932Y-35687444D01*
X40449500Y-35814000D02*
X43555376Y-35814000D01*
X43561000Y-50101500D02*
X40449500Y-50101500D01*
M02*
