G04 #@! TF.FileFunction,Copper,L2,Bot,Signal*
%FSLAX46Y46*%
G04 Gerber Fmt 4.6, Leading zero omitted, Abs format (unit mm)*
G04 Created by KiCad (PCBNEW (2016-06-01 BZR 6870, Git 0ccd3bb)-product) date 06/04/16 15:12:46*
%MOMM*%
%LPD*%
G01*
G04 APERTURE LIST*
%ADD10C,0.150000*%
%ADD11C,1.700000*%
%ADD12R,1.727200X1.727200*%
%ADD13O,1.727200X1.727200*%
%ADD14C,0.600000*%
%ADD15C,0.250000*%
G04 APERTURE END LIST*
D10*
D11*
X39575500Y-34147500D03*
X24575500Y-37147500D03*
X38575500Y-21147500D03*
X26575500Y-37147500D03*
X28575500Y-37147500D03*
X30575500Y-37147500D03*
X32575500Y-37147500D03*
X34575500Y-37147500D03*
X36575500Y-37147500D03*
X38575500Y-37147500D03*
X36575500Y-21147500D03*
X34575500Y-21147500D03*
X32575500Y-21147500D03*
X30575500Y-21147500D03*
X28575500Y-21147500D03*
X26575500Y-21147500D03*
X24575500Y-21147500D03*
X39575500Y-32147500D03*
X39575500Y-30147500D03*
X39575500Y-28147500D03*
X39575500Y-26147500D03*
X39575500Y-24147500D03*
X53123500Y-23447500D03*
X53123500Y-38147500D03*
X55663500Y-38147500D03*
X58203500Y-38147500D03*
X60743500Y-38147500D03*
X55663500Y-23447500D03*
X58203500Y-23447500D03*
X60743500Y-23447500D03*
D12*
X58356500Y-44577000D03*
D13*
X60896500Y-44577000D03*
X58356500Y-47117000D03*
X60896500Y-47117000D03*
X58356500Y-49657000D03*
X60896500Y-49657000D03*
X58356500Y-52197000D03*
X60896500Y-52197000D03*
X58356500Y-54737000D03*
X60896500Y-54737000D03*
X58356500Y-57277000D03*
X60896500Y-57277000D03*
D12*
X36068000Y-54991000D03*
D13*
X38608000Y-54991000D03*
X36068000Y-52451000D03*
X38608000Y-52451000D03*
X36068000Y-49911000D03*
X38608000Y-49911000D03*
X36068000Y-47371000D03*
X38608000Y-47371000D03*
D14*
X57531000Y-20002500D03*
X44577000Y-38100000D03*
X40960966Y-38128921D03*
X37846000Y-41275000D03*
X43878500Y-23812500D03*
X42427998Y-23812500D03*
X42389673Y-22696781D03*
X38989000Y-22733000D03*
X40449500Y-51435000D03*
X42625030Y-51435000D03*
X55689500Y-21526500D03*
X35814000Y-38989000D03*
X40449500Y-38989000D03*
X41725010Y-38989000D03*
X35877500Y-43497500D03*
X40449500Y-43497500D03*
X41725010Y-43497500D03*
X41825522Y-23264014D03*
X40513000Y-22034498D03*
X44577000Y-37274500D03*
X42175020Y-36625844D03*
X40449500Y-48641000D03*
X42175020Y-48641000D03*
X43250031Y-54149991D03*
X41656002Y-20701000D03*
X43053000Y-22098000D03*
X44640500Y-34861500D03*
X43075040Y-34861500D03*
X40767000Y-55499000D03*
X43681932Y-35687444D03*
X40449500Y-35814000D03*
X40449500Y-50101500D03*
X43561000Y-50101500D03*
D15*
X40750501Y-24332829D02*
X40750501Y-23583499D01*
X41077965Y-24660293D02*
X40750501Y-24332829D01*
X41077965Y-37569956D02*
X41077965Y-24660293D01*
X41100009Y-37592000D02*
X41077965Y-37569956D01*
X41100009Y-41957991D02*
X41100009Y-42148491D01*
X41100009Y-42148491D02*
X41100007Y-42148493D01*
X41100009Y-37592000D02*
X41100009Y-41957991D01*
X41100009Y-41957991D02*
X41084500Y-41973500D01*
X41084500Y-41973500D02*
X38544500Y-41973500D01*
X38544500Y-41973500D02*
X37846000Y-41275000D01*
X40750501Y-22749499D02*
X43497500Y-20002500D01*
X43497500Y-20002500D02*
X57531000Y-20002500D01*
X40750501Y-23583499D02*
X40750501Y-22749499D01*
X39425499Y-21997499D02*
X38575500Y-21147500D01*
X40750501Y-23583499D02*
X39425499Y-22258497D01*
X39425499Y-22258497D02*
X39425499Y-21997499D01*
X44577000Y-38100000D02*
X53076000Y-38100000D01*
X53076000Y-38100000D02*
X53123500Y-38147500D01*
X41100009Y-37592000D02*
X41100009Y-37989878D01*
X41100009Y-37989878D02*
X40960966Y-38128921D01*
X41100007Y-54879509D02*
X41100007Y-42148493D01*
X43497500Y-57277000D02*
X41100007Y-54879509D01*
X44361099Y-58140599D02*
X43672495Y-57451995D01*
X57492901Y-58140599D02*
X44361099Y-58140599D01*
X58356500Y-57277000D02*
X57492901Y-58140599D01*
X43672495Y-57451995D02*
X43497500Y-57277000D01*
X43497500Y-57277000D02*
X37240400Y-57277000D01*
X37240400Y-57277000D02*
X36068000Y-56104600D01*
X36068000Y-56104600D02*
X36068000Y-54991000D01*
X43878500Y-23812500D02*
X44302764Y-23812500D01*
X44302764Y-23812500D02*
X45842765Y-22272499D01*
X45842765Y-22272499D02*
X57028499Y-22272499D01*
X57353501Y-22597501D02*
X58203500Y-23447500D01*
X57028499Y-22272499D02*
X57353501Y-22597501D01*
X42427998Y-23634579D02*
X42427998Y-23812500D01*
X42427998Y-35953820D02*
X42427998Y-23812500D01*
X42689672Y-22996780D02*
X42389673Y-22696781D01*
X42689672Y-23372905D02*
X42689672Y-22996780D01*
X42427998Y-23634579D02*
X42689672Y-23372905D01*
X42800022Y-36325844D02*
X42427998Y-35953820D01*
X42800022Y-49301065D02*
X42800022Y-36325844D01*
X42485988Y-49615099D02*
X42800022Y-49301065D01*
X42485988Y-50871694D02*
X42485988Y-49615099D01*
X42625030Y-51010736D02*
X42485988Y-50871694D01*
X42625030Y-51435000D02*
X42625030Y-51010736D01*
X38989000Y-22733000D02*
X34161000Y-22733000D01*
X34161000Y-22733000D02*
X32575500Y-21147500D01*
X40449500Y-51435000D02*
X40149501Y-51135001D01*
X40149501Y-51135001D02*
X37292001Y-51135001D01*
X37292001Y-51135001D02*
X36931599Y-50774599D01*
X36931599Y-50774599D02*
X36068000Y-49911000D01*
X42625030Y-53276500D02*
X42625030Y-51435000D01*
X42625030Y-54495300D02*
X42625030Y-53276500D01*
X45051994Y-55926970D02*
X44877002Y-56101962D01*
X44231692Y-56101962D02*
X42625030Y-54495300D01*
X50327400Y-55926970D02*
X45051994Y-55926970D01*
X59545101Y-48468399D02*
X57785971Y-48468399D01*
X60896500Y-47117000D02*
X59545101Y-48468399D01*
X57785971Y-48468399D02*
X50327400Y-55926970D01*
X44877002Y-56101962D02*
X44231692Y-56101962D01*
X55265236Y-21526500D02*
X55689500Y-21526500D01*
X41527976Y-36903802D02*
X41527976Y-24473893D01*
X41725010Y-37100836D02*
X41527976Y-36903802D01*
X41725010Y-38989000D02*
X41725010Y-37100836D01*
X41527976Y-24473893D02*
X41200512Y-24146429D01*
X43406504Y-21526500D02*
X55265236Y-21526500D01*
X41200512Y-22979973D02*
X42707487Y-21472998D01*
X41200512Y-24146429D02*
X41200512Y-22979973D01*
X43353002Y-21472998D02*
X43406504Y-21526500D01*
X42707487Y-21472998D02*
X43353002Y-21472998D01*
X60743500Y-23447500D02*
X60743500Y-38147500D01*
X38575500Y-37147500D02*
X37400499Y-35972499D01*
X37400499Y-35972499D02*
X29750501Y-35972499D01*
X29750501Y-35972499D02*
X29425499Y-36297501D01*
X29425499Y-36297501D02*
X28575500Y-37147500D01*
X40449500Y-38989000D02*
X35814000Y-38989000D01*
X41725010Y-43497500D02*
X41725010Y-38989000D01*
X40449500Y-43497500D02*
X35877500Y-43497500D01*
X41725010Y-43942000D02*
X41725010Y-43497500D01*
X41725010Y-48166008D02*
X41725010Y-43942000D01*
X41550018Y-48341000D02*
X41725010Y-48166008D01*
X43858893Y-57001984D02*
X41550018Y-54693109D01*
X53551516Y-57001984D02*
X43858893Y-57001984D01*
X58356500Y-52197000D02*
X53551516Y-57001984D01*
X41550018Y-54693109D02*
X41550018Y-48341000D01*
X41802996Y-24112502D02*
X41802996Y-23286540D01*
X41802996Y-23286540D02*
X41825522Y-23264014D01*
X41977987Y-36428811D02*
X41977987Y-24287493D01*
X42175020Y-36625844D02*
X41977987Y-36428811D01*
X41977987Y-24287493D02*
X41802996Y-24112502D01*
X40513000Y-21356234D02*
X40513000Y-21610234D01*
X40513000Y-21610234D02*
X40513000Y-22034498D01*
X26575500Y-21147500D02*
X27750501Y-19972499D01*
X39129265Y-19972499D02*
X40513000Y-21356234D01*
X27750501Y-19972499D02*
X39129265Y-19972499D01*
X44577000Y-37274500D02*
X44879001Y-36972499D01*
X44879001Y-36972499D02*
X54488499Y-36972499D01*
X54488499Y-36972499D02*
X54813501Y-37297501D01*
X54813501Y-37297501D02*
X55663500Y-38147500D01*
X42350011Y-48041745D02*
X42350011Y-38688999D01*
X42175020Y-48641000D02*
X42175020Y-48216736D01*
X42175020Y-48216736D02*
X42350011Y-48041745D01*
X42350011Y-38688999D02*
X42175019Y-38514005D01*
X42175019Y-38514005D02*
X42175020Y-36625844D01*
X40449500Y-48641000D02*
X37338000Y-48641000D01*
X37338000Y-48641000D02*
X36068000Y-47371000D01*
X42175020Y-49289656D02*
X42175020Y-48641000D01*
X42000029Y-49464647D02*
X42175020Y-49289656D01*
X42000029Y-54506709D02*
X42000029Y-49464647D01*
X58356500Y-49657000D02*
X51461527Y-56551973D01*
X44045293Y-56551973D02*
X42000029Y-54506709D01*
X51461527Y-56551973D02*
X44045293Y-56551973D01*
X43352999Y-22397999D02*
X43053000Y-22098000D01*
X43352999Y-23412999D02*
X43352999Y-22397999D01*
X43075040Y-23690958D02*
X43352999Y-23412999D01*
X43075040Y-25168040D02*
X43075040Y-23690958D01*
X41356003Y-20401001D02*
X41656002Y-20701000D01*
X24575500Y-21147500D02*
X26200512Y-19522488D01*
X26200512Y-19522488D02*
X40477490Y-19522488D01*
X40477490Y-19522488D02*
X41356003Y-20401001D01*
X43075040Y-34861500D02*
X43075040Y-25168040D01*
X43075040Y-25168040D02*
X43053000Y-25146000D01*
X44640500Y-34861500D02*
X44940499Y-35161499D01*
X57353501Y-37297501D02*
X58203500Y-38147500D01*
X44940499Y-35161499D02*
X55217499Y-35161499D01*
X55217499Y-35161499D02*
X57353501Y-37297501D01*
X43075040Y-35374958D02*
X43075040Y-34861500D01*
X43250033Y-49487465D02*
X43250033Y-36139445D01*
X42935999Y-35513999D02*
X43075040Y-35374958D01*
X42935999Y-35825411D02*
X42935999Y-35513999D01*
X43250033Y-36139445D02*
X42935999Y-35825411D01*
X42935999Y-49801499D02*
X43250033Y-49487465D01*
X42935999Y-50401501D02*
X42935999Y-49801499D01*
X43075040Y-50540542D02*
X42935999Y-50401501D01*
X43075041Y-50960009D02*
X43075040Y-50540542D01*
X44577000Y-55476960D02*
X43250031Y-54149991D01*
X43250031Y-51134999D02*
X43075041Y-50960009D01*
X43250031Y-54149991D02*
X43250031Y-51134999D01*
X40767000Y-55499000D02*
X39116000Y-55499000D01*
X39116000Y-55499000D02*
X38608000Y-54991000D01*
X58356500Y-47117000D02*
X49996540Y-55476960D01*
X44767500Y-55476960D02*
X44577000Y-55476960D01*
X49996540Y-55476960D02*
X44767500Y-55476960D01*
X43981931Y-35387445D02*
X43981931Y-32589069D01*
X43981931Y-32589069D02*
X53123500Y-23447500D01*
X43981931Y-35387445D02*
X43681932Y-35687444D01*
X43860999Y-35866511D02*
X43681932Y-35687444D01*
X43561000Y-50101500D02*
X43860999Y-49801501D01*
X43860999Y-49801501D02*
X43860999Y-35866511D01*
X40449500Y-35814000D02*
X37878410Y-35814000D01*
X37878410Y-35814000D02*
X37586899Y-35522489D01*
X37586899Y-35522489D02*
X26200511Y-35522489D01*
X26200511Y-35522489D02*
X25425499Y-36297501D01*
X25425499Y-36297501D02*
X24575500Y-37147500D01*
X40449500Y-50101500D02*
X38798500Y-50101500D01*
X38798500Y-50101500D02*
X38608000Y-49911000D01*
X43561000Y-50809557D02*
X43561000Y-50101500D01*
X43700042Y-51921401D02*
X43700042Y-50948599D01*
X46706141Y-54927500D02*
X43700042Y-51921401D01*
X46892400Y-54927500D02*
X46706141Y-54927500D01*
X58356500Y-44577000D02*
X57242900Y-44577000D01*
X43700042Y-50948599D02*
X43561000Y-50809557D01*
X57242900Y-44577000D02*
X46892400Y-54927500D01*
M02*
